<svg xmlns="http://www.w3.org/2000/svg" fill="none" viewBox="0 0 32 32"><rect width="32" height="32" fill="#fff" rx="16"/><path fill="#316DC2" d="M8.02 12.49c-.48.34-.77 1.07-.23 1.94.53.87 8.15 6.75 8.43 6.9.28.17.56.2 1.27-.37.7-.57 6.65-5.04 6.8-5.17.25-.21.3-.73 0-.98 0 0-7.2 5.39-7.43 5.6-.23.22-.6-.13-.53-.6s.12-.51 1.03-1.22l6.33-4.8c.27-.2.28-.55-.16-.86l-7.38-5.25c-.22-.16-.52-.31-.98.01-.46.33-6.26 4.17-7.15 4.8"/><path fill="#316DC2" d="M16.22 21.91c-.18-.1-3.53-2.67-5.95-4.67v4.17c0 3.04 8.56 4.66 11.4.92v-3.98l-4.18 3.18c-.71.57-1 .55-1.27.38"/><path fill="#98B8E6" d="M19.84 17.34s1.28.64 1.37 3.22l-.62-.17-.5 1.05c-.2-2.82-1.34-3.23-1.34-3.23z"/></svg>